<svg xmlns="http://www.w3.org/2000/svg" width="33.81986" height="64.9132" viewBox="0 0 33.81986 64.9132">
  <title>Asset 1</title>
  <g>
    <g>
      <path d="M13.46623,64.89573l.00947.01747.04543-.0032A.24487.24487,0,0,1,13.46623,64.89573Z" style="fill: #b63f30"/>
      <path d="M21.48375,14.842c-.8066-.99282-2.462-3.028-2.88781-3.47576-.0609.13974-.14117.28579-.19756.4113-.74124,1.64962-1.64,3.29917-2.38184,4.94854-.16993.37781-.34895.75178-.50846,1.13392a1.79536,1.79536,0,0,0-.10766.45422c-.1193.90472-.23054,1.8105-.34748,2.71552-.12842.99387-.26067,1.98724-.38872,2.98116a.48284.48284,0,0,0,.01315.18131c.13535.50843.27593,1.01545.41063,1.524a.22085.22085,0,0,0,.14423.15746c.37063.17227.73142.34674,1.10017.52305.03358.016.22525.02427.24814.07173-.6028-.11189-1.372-.36046-1.9967-.47641-.01407.05859-.02349.27922-.02877.33646-.05141.55743-.09992,1.11513-.14985,1.6727q-.13479,1.50546-.2704,3.01085c-.0606.669-.12907,1.33737-.1816,2.007a4.42911,4.42911,0,0,0,.01626.62022c.035.5587.07767,1.11692.11137,1.67569a.17619.17619,0,0,0,.14393.17655c.35626.11793.711.24051,1.06615.36173a.169.169,0,0,1,.091.06422c-.40995.0495-.81991.064-1.23123.1137,0,.12034-.00587.25535.00092.35454.05275.77067.10939,1.54109.1619,2.31179.03767.55288.06977,1.10615.1063,1.65912.02842.43011.06084.85994.0897,1.29.03821.56967.0737,1.13954.11221,1.70919.02945.43563.06314.871.09247,1.30662.0376.55851.07182,1.11724.10917,1.67575.02915.43567.062.87108.09118,1.30673.03784.56409.073,1.12836.11072,1.69247.02878.43007.06073.85994.08959,1.29.03823.56966.074,1.13952.1123,1.70918.03977.592.08193,1.18387.12176,1.77589.03871.57529.07484,1.15076.11388,1.726.02955.4356.06331.8709.09264,1.30652.03759.55854.07166,1.11731.109,1.67585.02913.43564.06124.871.0915,1.30661.01823.26242.03847.52477.051.78748a.64025.64025,0,0,1-.03233.197c-.24126.86247-.37693,1.72515-.62454,2.58579a.52028.52028,0,0,0,.02371.37386c.09883.22472.26253.45167.36634.69639-.05873.00144,1.05994-2.0665.973-2.0665.03451-.0916.055-.15378.08091-.21363.30243-.69935.60819-1.39728.90641-2.09841a1.6507,1.6507,0,0,0,.11374-.40171c.1033-.70381.19735-1.409.296-2.11348.06916-.49376.14073-.98718.21082-1.48082a.23742.23742,0,0,0-.04988-.22.3026.3026,0,0,1-.06918-.26591c.02169-.20054.039-.40158.05533-.60266.06034-.74281.1141-1.48619.18064-2.22844.07153-.798.17042-1.5938.22864-2.39265.0692-.94988.132-1.90141.15359-2.85324.02765-1.22158.00842-2.44419.01566-3.66633.00277-.465.00185-.93168.0405-1.39445.0494-.59142.13808-1.17951.2081-1.76923q.111-.93463.21865-1.86967.11144-.96.22134-1.92015.09144-.8016.18039-1.60347c.07341-.65139.14286-1.30327.22187-1.954.07766-.63957.16457-1.278.24844-1.91682q.175-1.33308.35194-2.66592c.11459-.85506.23432-1.70945.34764-2.56469.02477-.187.032-.37632.04809-.575L20.55577,26c.03855-.23263.06092-.4446.11-.65021a19.65706,19.65706,0,0,0,.35187-2.47744c.07784-.7242.14479-1.44957.21517-2.17456.07741-.7974.17385-1.59365.22466-2.39277.06613-1.04.09462-2.0824.14184-3.12367A.47715.47715,0,0,0,21.48375,14.842Z" style="fill: #b63f30"/>
    </g>
    <path d="M10.12622,0c-.06476.4766-.12815.9534-.19466,1.42976-.07115.50962-.14513,1.01886-.21811,1.52823q-.11064.77226-.22163,1.54448-.10914.76415-.21727,1.52843c-.05615.39309-.1106.78648-.17287,1.17861-.01369.0862-.09863.20392-.17258.15175a.6665.6665,0,0,0-1.0868.39155c-.06213.42924-.01218.37842-.09817.38229-.00949-.052-.02191-.10525-.02865-.15923q-.09776-.78259-.19362-1.56541c-.05-.41086-.09659-.82214-.14693-1.23295-.0619-.50519-.127-1.01-.18907-1.51515-.04976-.40526-.09606-.811-.14552-1.21624-.05082-.41641-.10413-.83251-.15536-1.24887C6.84673.88638,6.811.5752,6.77213.26441,6.76106.17583,6.74316.08811,6.72839,0Z" style="fill: #089776"/>
    <path d="M16.024,1.13833c-.0498.11713-.08778.20957-.12817.301q-1.23228,2.7885-2.46509,5.57677c-.01585.03584-.033.07113-.04824.1072a.15942.15942,0,0,1-.18672.10434c-.52791-.06056-1.05619-.118-1.58442-.17583-.15-.01642-.30023-.0306-.47284-.04809.03961-.04488.06732-.076.09475-.10738a.9988.9988,0,0,0,.21639-.5196q.21984-1.36648.44036-2.73286c.176-1.08184.36557-2.16121.60426-3.23134.013-.05827.03364-.11483.057-.19318Z" style="fill: #089776"/>
    <path d="M.55718,3.59343,3.55394,1.89312c.03451.074.06526.13094.08836.19083q.665,1.724,1.32843,3.44863c.38814,1.00859.774,2.018,1.16583,3.02521a.41843.41843,0,0,1-.01943.383c-.187.34461-.36306.69512-.54431,1.04285-.025.04788-.05461.09331-.09644.16419Z" style="fill: #089776"/>
    <path d="M21.95571,4.192c-.06114.0308-.11372.06052-.1688.08452a4.19028,4.19028,0,0,0-1.344.931c-.89568.91909-1.80767,1.8223-2.71525,2.72974-.22955.22952-.4674.45073-.724.69746L15.552,7.79935a1.96,1.96,0,0,0,.23824-.208,1.58047,1.58047,0,0,0,.15379-.25946c.6724-1.222,1.336-2.449,2.0207-3.66408.25534-.45313.55872-.87928.84245-1.31627.078-.12008.09433-.12464.21787-.06953a10.69913,10.69913,0,0,1,2.84268,1.7991c.02079.01873.041.03822.06007.05866A.34239.34239,0,0,1,21.95571,4.192Z" style="fill: #089776"/>
    <path d="M0,27.47217a.87392.87392,0,0,0,.062-.20339q.0462-.8646.08042-1.72982a.39122.39122,0,0,1,.07072-.23554,11.24352,11.24352,0,0,0,1.09673-2.05718c.06506-.13654.12817-.274.19071-.41174.0202-.04449.0357-.09111.0568-.14568a1.33019,1.33019,0,0,0-.43161-.08381c-.03905-.00457-.0907.03691-.12569.0691-.23512.21634-.46708.4361-.70068.6541-.03157.02945-.06655.05525-.12443.10288.016-.10486.02517-.18.0392-.25413q.37473-1.98075.75037-3.96134.415-2.19542.8276-4.39127c.07159-.38176.06786-.38276.38328-.61575q1.83285-1.35386,3.665-2.7087a2.86242,2.86242,0,0,0,.31268-.27939q.43419-.4339.86078-.87537a.39671.39671,0,0,1,.24911-.12166c.1388-.01783.27629-.04677.41536-.06118a.302.302,0,0,0,.20443-.10262,1.72477,1.72477,0,0,1,.81078-.47944c.48015-.15276.95263-.32962,1.42864-.49545.05749-.02.1167-.03509.1957-.05857l.02616.34058c.07113-.0189.12881-.03121.18452-.04951.38849-.12766.777-.2552,1.16442-.38613a.3758.3758,0,0,1,.24575-.00956q.98409.315,1.969.62739a.80418.80418,0,0,1,.075.03417l.16206,1.83026c.21462-.14576.38062-.29273.55417-.42907.1719-.135.34137-.27318.51223-.40955.17483-.13954.35006-.27858.52858-.4206.95549.398,1.89635.81228,2.85611,1.21207-.06786.15521-.11855.27437-.18008.4113Q17.304,14.252,16.19134,16.7261c-.16992.37782-.34894.75179-.50845,1.13393a1.79493,1.79493,0,0,0-.10766.45422c-.1193.90472-.23055,1.81049-.34748,2.71552-.12842.99387-.26067,1.98724-.38873,2.98116a.48291.48291,0,0,0,.01315.18132c.13535.50842.27594,1.01544.41064,1.524a.22082.22082,0,0,0,.14423.15746c.37063.17227.73142.34674,1.10016.523a.44335.44335,0,0,1,.16075.12419c-.60281-.11189-1.28465-.2381-1.90931-.354a1.06874,1.06874,0,0,0-.02877.16165c-.0514.55744-.09992,1.11514-.14984,1.67271q-.13478,1.50546-.2704,3.01084c-.06061.669-.12908,1.33737-.18161,2.007a4.43238,4.43238,0,0,0,.01626.62023c.035.55869.07768,1.11691.11137,1.67568a.17621.17621,0,0,0,.14393.17655c.35627.11792.711.24051,1.06616.36173a.1691.1691,0,0,1,.091.06422l-1.23124.14866c0,.12035-.00586.2204.00093.31958.05275.77068.10939,1.54109.16189,2.31179.03767.55289.06977,1.10616.10631,1.65913.02841.4301.06084.85993.08969,1.29.03821.56968.07371,1.13953.11222,1.70919.02945.43563.06314.871.09247,1.30663.0376.55849.07181,1.11723.10917,1.67574.02915.43566.06195.87108.09118,1.30673.03784.56409.073,1.12837.11071,1.69247.02878.43008.06074.85994.0896,1.29.03822.56967.074,1.13951.1123,1.70919.03976.592.08192,1.18387.12175,1.77588.03871.57529.07485,1.15075.11388,1.726.02956.43559.06332.87091.09264,1.30652.03759.55854.07167,1.1173.109,1.67586.02913.43563.06124.87105.0915,1.3066.01823.26242.03846.52477.051.78747a.64.64,0,0,1-.03232.19706c-.24127.86246-.48182,1.72514-.72943,2.58578a.52025.52025,0,0,0,.02372.37387c.09882.22472.19259.45166.29641.69638-.07753.01224-.13612.02627-.19536.03008-.43048.02773-.86111.053-1.29164.07988-.15094.00942-.30217.017-.45245.033a.26993.26993,0,0,1-.24979-.1c-.48816-.54076-.98035-1.07788-1.47135-1.61606-.04532-.04969-.09014-.09994-.13754-.1476a.21141.21141,0,0,1-.06177-.18178.26626.26626,0,0,0-.04155-.16909.60945.60945,0,0,1-.15607-.64169l-.24916-.05226c0-.08813.00124-.17627-.00028-.26437-.00238-.13794-.00317-.13793-.13634-.18205-.00489-.00968-.015-.02-.01387-.029a1.07381,1.07381,0,0,0-.13111-.56326q-1.1075-2.579-2.21172-5.15932a.38746.38746,0,0,1-.00725-.33506c.12383-.2881.23092-.58337.3535-.872.04571-.10765.049-.19013-.05363-.26206a.52246.52246,0,0,1-.09674-.09314.26058.26058,0,0,0-.224-.09014c-.16193.004-.324.00113-.48715.00113-.02773-.05707-.05144-.10112-.071-.14692q-1.08137-2.52615-2.16508-5.05128a.26834.26834,0,0,1,.03209-.30281c.54688-.7666,1.08735-1.53778,1.62926-2.30793.03383-.04807.06273-.0996.10849-.17281a3.88861,3.88861,0,0,0-.72956.035.34529.34529,0,0,0-.14.08776q-.60007.47475-1.19846.95165c-.05663.045-.11481.08794-.19041.1457-.20681-.42405-.358-.86051-.57241-1.31265a4.50648,4.50648,0,0,0-.08226.6523c-.11418-.01-.13347-.09745-.16369-.17093-.21309-.51809-.43918-1.03142-.63352-1.55649-.27014-.72986-.52066-1.46713-.77083-2.2042A11.0132,11.0132,0,0,0,2.755,41.49a1.56975,1.56975,0,0,1-.1077-.299c-.12513-.48826-.24325-.97833-.36911-1.4664a.32326.32326,0,0,1,.0349-.28826.46036.46036,0,0,0,.02614-.48522c-.21347-.53584-.40609-1.07995-.61179-1.61895A.40744.40744,0,0,1,1.7321,37.01c.33059-.80893.65338-1.621.98513-2.42948a.28143.28143,0,0,0-.056-.33739c-.23392.207-.43936.441-.65658.66272-.21383.21826-.427.43719-.6542.67-.02752-.07058-.04786-.11534-.06265-.16186C1.14359,34.9603.99,34.5093.86039,34.05148c-.08366-.29564-.12857-.60207-.19622-.90245-.16238-.721-.32845-1.44113-.49139-2.162a1.23623,1.23623,0,0,1-.0335-.23159C.11285,29.91516.091,29.07471.062,28.23451a2.08358,2.08358,0,0,0-.062-.325Z" style="fill: #d84c36"/>
  </g>
</svg>
